<?xml version="1.0" encoding="UTF-8"?>
<svg width="750" height="500" version="1.1" viewBox="0 0 750.00001 500.00001" xmlns="http://www.w3.org/2000/svg">
 <defs>
  <marker id="a" overflow="visible" orient="auto">
   <path transform="scale(.8) translate(7.4 1)" d="m-2.5-1c0 2.76-2.24 5-5 5s-5-2.24-5-5 2.24-5 5-5 5 2.24 5 5z" fill="#fff" fill-rule="evenodd" stroke="#fff" stroke-width="1pt"/>
  </marker>
  <linearGradient id="b" x1="651.3" x2="651.68" y1="126.19" y2="471.01" gradientUnits="userSpaceOnUse">
   <stop stop-color="#fff" stop-opacity=".18447" offset="0"/>
   <stop stop-color="#fff" stop-opacity="0" offset="1"/>
  </linearGradient>
 </defs>
 <g transform="translate(0 -552.36)">
  <rect y="552.36" width="750" height="500" ry="0" fill="#3e6f8d"/>
 </g>
 <g transform="translate(2.8926 -3.8047)">
  <path d="m37.109 30.992-4.6113 7.9863h3.6113v10.793h-2.3379v0.92188h2.3379v23.477h-2.3379v0.92188h2.3379v23.479h-2.3379v0.91992h2.3379v23.479h-2.3379v0.91992h2.3379v23.479h-2.3379v0.91992h2.3379v23.479h-2.3379v0.92188h2.3379v23.479h-2.3379v0.91992h2.3379v23.479h-2.3379v0.91993h2.3379v23.479h-2.3379v0.91992h2.3379v23.479h-2.3379v0.92187h2.3379v23.477h-2.3379v0.92187h2.3379v23.479h-2.3379v0.91992h2.3379v23.479h-2.3379v0.91993h2.3379v23.479h-2.3379v0.91992h2.3379v23.479h-2.3379v0.92187h2.3379v23.477h-2.3379v0.92187h2.3379v23.479h-2.3379v0.91992h2.3379v23.479h-2.3379v0.91993h2.3379v7.5332h19.141v2.3379h0.91992v-2.3379h23.479v2.3379h0.92187v-2.3379h23.477v2.3379h0.92187v-2.3379h23.479v2.3379h0.91992v-2.3379h23.479v2.3379h0.91992v-2.3379h23.479v2.3379h0.92188v-2.3379h23.477v2.3379h0.92187v-2.3379h23.479v2.3379h0.91992v-2.3379h23.479v2.3379h0.91992v-2.3379h23.479v2.3379h0.91993v-2.3379h23.479v2.3379h0.92188v-2.3379h23.477v2.3379h0.92187v-2.3379h23.479v2.3379h0.91992v-2.3379h23.479v2.3379h0.91992v-2.3379h23.479v2.3379h0.91993v-2.3379h23.479v2.3379h0.92188v-2.3379h23.479v2.3379h0.91992v-2.3379h23.479v2.3379h0.91992v-2.3379h23.479v2.3379h0.91992v-2.3379h23.479v2.3379h0.92188v-2.3379h23.477v2.3379h0.92188v-2.3379h23.479v2.3379h0.91993v-2.3379h23.479v2.3379h0.91992v-2.3379h23.479v2.3379h0.92187v-2.3379h23.477v2.3379h0.92187v-2.3379h23.479v2.3379h0.91992v-2.3379h23.479v2.3379h0.91993v-2.3379h13.188v3.6113l7.9883-4.6113-7.9883-4.6113v3.6113h-13.188v-2.3379h-0.91993v2.3379h-23.479v-2.3379h-0.91992v2.3379h-23.479v-2.3379h-0.92187v2.3379h-23.477v-2.3379h-0.92187v2.3379h-23.479v-2.3379h-0.91992v2.3379h-23.479v-2.3379h-0.91993v2.3379h-23.479v-2.3379h-0.92188v2.3379h-23.477v-2.3379h-0.92188v2.3379h-23.479v-2.3379h-0.91992v2.3379h-23.479v-2.3379h-0.91992v2.3379h-23.479v-2.3379h-0.91992v2.3379h-23.479v-2.3379h-0.92188v2.3379h-23.479v-2.3379h-0.91993v2.3379h-23.479v-2.3379h-0.91992v2.3379h-23.479v-2.3379h-0.91992v2.3379h-23.479v-2.3379h-0.92187v2.3379h-23.477v-2.3379h-0.92188v2.3379h-23.479v-2.3379h-0.91993v2.3379h-23.479v-2.3379h-0.91992v2.3379h-23.479v-2.3379h-0.91992v2.3379h-23.479v-2.3379h-0.92187v2.3379h-23.477v-2.3379h-0.92188v2.3379h-23.479v-2.3379h-0.91992v2.3379h-23.479v-2.3379h-0.91992v2.3379h-23.479v-2.3379h-0.92187v2.3379h-23.477v-2.3379h-0.92187v2.3379h-23.479v-2.3379h-0.91992v2.3379h-17.141v-5.5332h2.3379v-0.91993h-2.3379v-23.479h2.3379v-0.91992h-2.3379v-23.479h2.3379v-0.92187h-2.3379v-23.477h2.3379v-0.92187h-2.3379v-23.479h2.3379v-0.91992h-2.3379v-23.479h2.3379v-0.91993h-2.3379v-23.479h2.3379v-0.91992h-2.3379v-23.479h2.3379v-0.92187h-2.3379v-23.477h2.3379v-0.92187h-2.3379v-23.479h2.3379v-0.91992h-2.3379v-23.479h2.3379v-0.91993h-2.3379v-23.479h2.3379v-0.91992h-2.3379v-23.479h2.3379v-0.92188h-2.3379v-23.479h2.3379v-0.91992h-2.3379v-23.479h2.3379v-0.91992h-2.3379v-23.479h2.3379v-0.91992h-2.3379v-23.479h2.3379v-0.92188h-2.3379v-23.477h2.3379v-0.92188h-2.3379v-10.793h3.6113l-4.6113-7.9863z" color="#000000" color-rendering="auto" fill="#fff" fill-rule="evenodd" image-rendering="auto" shape-rendering="auto" solid-color="#000000" style="block-progression:tb;isolation:auto;mix-blend-mode:normal;text-decoration-color:#000000;text-decoration-line:none;text-decoration-style:solid;text-indent:0;text-transform:none;white-space:normal"/>
  <path d="m38.109 392.28 102.2 56.163 102.2-19.335 102.2-174.94 102.2 53.401 102.2-23.018 102.2-158.36" fill="none" marker-end="url(#a)" marker-mid="url(#a)" stroke="#fff"/>
  <path d="m140.31 448.44v22.566" fill="none" stroke="#fff" stroke-dasharray="3, 3" stroke-width=".75"/>
  <path d="m242.51 429.11v41.901" fill="none" stroke="#fff" stroke-dasharray="3, 3" stroke-width=".75"/>
  <path d="m344.71 254.17v216.84" fill="none" stroke="#fff" stroke-dasharray="3, 3" stroke-width=".75"/>
  <path d="m446.91 307.57v165.43" fill="none" stroke="#fff" stroke-dasharray="3, 3" stroke-width=".75"/>
  <path d="m549.1 284.55v186.45" fill="none" stroke="#fff" stroke-dasharray="3, 3" stroke-width=".75"/>
  <path d="m651.3 471.01v-344.81" fill="none" stroke="#fff" stroke-dasharray="3, 3" stroke-width=".75"/>
  <path d="m38.109 392.28 102.2 56.163 102.2-19.335 102.2-174.94 102.2 53.401 102.2-23.018 102.2-158.36l2.1798 344.81-617.37 2z" fill="url(#b)" fill-rule="evenodd"/>
 </g>
</svg>
